<?xml version="1.0" encoding="UTF-8" standalone="no"?>
<!-- Created with Inkscape (http://www.inkscape.org/) -->

<svg
   width="210mm"
   height="297mm"
   viewBox="0 0 210 297"
   version="1.1"
   id="svg1"
   xml:space="preserve"
   xmlns:inkscape="http://www.inkscape.org/namespaces/inkscape"
   xmlns:sodipodi="http://sodipodi.sourceforge.net/DTD/sodipodi-0.dtd"
   xmlns="http://www.w3.org/2000/svg"
   xmlns:svg="http://www.w3.org/2000/svg"><sodipodi:namedview
     id="namedview1"
     pagecolor="#ffffff"
     bordercolor="#000000"
     borderopacity="0.25"
     inkscape:showpageshadow="2"
     inkscape:pageopacity="0.0"
     inkscape:pagecheckerboard="0"
     inkscape:deskcolor="#d1d1d1"
     inkscape:document-units="mm" /><defs
     id="defs1" /><g
     inkscape:label="Layer 1"
     inkscape:groupmode="layer"
     id="layer1"><g
       id="g301"
       transform="matrix(1.9687267,0,0,1.9687267,-31.75359,-77.995494)"><path
         style="fill:#a5d5eb"
         d="m 27.789552,186.0685 c -4.289372,-0.64102 -7.077524,-3.55053 -7.238263,-7.55332 -0.08733,-2.17473 -0.1539,-1.94954 2.264887,-7.6617 0.758358,-1.79092 2.088263,-4.93701 2.955345,-6.9913 1.489969,-3.53004 4.814664,-11.32787 7.415165,-17.39173 l 1.174508,-2.73872 -2.488637,-2.5287 C 17.531432,126.63105 18.231796,104.40468 33.400779,92.70412 35.080394,91.408554 35.046218,91.559275 34.145257,89.420871 31.638532,83.471236 31.804154,75.163353 34.557583,68.737852 L 35.224264,67.182061 33.802719,65.5774 c -4.91622,-5.549506 -7.946893,-12.613533 -6.481667,-15.107761 1.265388,-2.154049 3.097661,-2.097954 6.104668,0.186893 1.029096,0.781948 3.059253,2.002405 4.976361,2.991607 l 3.238141,1.670836 1.041991,-1.180069 c 12.990312,-14.711722 39.589065,-14.799334 52.906648,-0.174267 0.551599,0.605754 1.145098,1.100131 1.318886,1.098617 0.958604,-0.0084 6.695363,-3.195032 8.433713,-4.684789 3.09743,-2.654494 6.15219,-1.507623 6.15219,2.309767 0,2.845152 -3.12992,8.901186 -6.63848,12.844694 -1.65356,1.858547 -1.58241,1.473821 -0.66792,3.611459 2.63377,6.15653 2.75286,14.0364 0.30406,20.118328 -1.02893,2.555474 -1.02424,2.413851 -0.10022,3.025342 15.61199,10.331523 16.75434,34.683813 2.29827,48.993913 l -1.86025,1.84147 0.69856,0.33285 c 16.41323,7.82049 16.2556,32.3604 -0.25916,40.34565 -4.05,1.95827 -4.27469,1.99186 -13.321985,1.99186 H 84.17927 l -1.434224,-0.70876 c -1.504925,-0.74369 -2.745862,-1.84364 -3.507911,-3.10935 l -0.453619,-0.75343 -0.422354,0.82788 c -2.239327,4.38945 -9.213251,5.56656 -13.555633,2.28803 l -1.022679,-0.77213 -0.669119,0.58749 c -5.029523,4.41598 -14.525147,1.53392 -16.213126,-4.92093 -0.110456,-0.42238 -0.165654,-0.4301 -3.073653,-0.4301 h -2.961176 l -0.407515,1.11765 c -1.806726,4.95511 -6.243826,7.10852 -12.668709,6.14835 z m 4.884335,-6.40123 c 1.145148,-0.40007 1.780923,-1.30071 3.062602,-4.33847 l 1.160871,-2.75144 7.00903,-0.0502 c 5.461117,-0.0391 7.05235,0.003 7.205184,0.19155 0.107884,0.13297 0.650238,1.36228 1.20523,2.73181 1.558775,3.84652 1.961942,4.28147 4.129919,4.45549 4.281405,0.34367 4.860069,-1.82844 2.156506,-8.0948 -0.909032,-2.10696 -2.579601,-6.0288 -3.712374,-8.71518 -2.466037,-5.84823 -5.161057,-12.06214 -5.69053,-13.12067 -0.934931,-1.86911 -2.361739,-2.58582 -5.147793,-2.58582 -4.236502,0 -4.199627,-0.0424 -8.25837,9.48698 -9.118762,21.40954 -8.762678,20.45371 -8.098398,21.73829 0.618569,1.19618 3.07827,1.71621 4.978123,1.05248 z m 7.502084,-14.2089 c -0.275359,-0.27536 -0.06502,-0.92612 1.667563,-5.1591 2.09393,-5.11581 2.255096,-5.29051 3.039865,-3.2951 0.261192,0.66413 1.095904,2.74666 1.854916,4.62785 0.759012,1.8812 1.333944,3.54043 1.277625,3.6872 -0.108551,0.28288 -7.563916,0.4152 -7.839969,0.13915 z m 32.057207,14.06241 c 0.940693,-0.47522 1.613555,-1.34247 1.917591,-2.47158 0.369138,-1.37087 0.156242,-26.75877 -0.230247,-27.45694 -1.476777,-2.66771 -5.275774,-2.843 -6.611868,-0.30507 l -0.444421,0.84418 v 13.384 c 0,11.64702 0.03847,13.47609 0.296455,14.09352 0.850596,2.03577 3.128078,2.89418 5.07249,1.91189 z m 26.983564,-0.0554 c 15.707288,-3.70248 16.537748,-25.93316 1.167438,-31.25127 l -1.819655,-0.6296 -6.087628,-0.002 c -6.616586,-0.002 -6.858062,0.0313 -7.834907,1.07607 -0.929515,0.99414 -0.922013,0.87184 -0.922013,15.0319 0,17.63629 -0.84113,16.05154 8.523644,16.05914 4.467998,0.004 6.019192,-0.0597 6.973121,-0.28452 z m -7.731409,-6.84011 c -0.102748,-0.32427 -0.242289,-17.38645 -0.145817,-17.82965 0.150515,-0.69146 5.909527,-0.3927 7.567411,0.39258 8.018683,3.79818 6.705443,15.66974 -1.932056,17.46547 -1.447234,0.30088 -5.391667,0.28047 -5.489538,-0.0284 z M 55.750947,142.26546 c 1.980599,-0.99509 2.065622,-3.86029 0.149225,-5.02873 -1.924326,-1.17328 -4.489684,0.44036 -4.302056,2.70604 0.172709,2.08554 2.279508,3.26388 4.152831,2.32269 z m 29.679297,0 c 2.002018,-1.02086 2.010149,-3.62231 0.01556,-4.97981 -1.779965,-1.21143 -4.275883,0.28157 -4.278743,2.55945 -0.0026,2.10601 2.307515,3.41757 4.263179,2.42036 z m -40.948049,-4.85641 c 2.16438,-1.54117 0.923429,-5.14849 -1.771883,-5.15068 -2.21358,-0.002 -3.535717,2.342 -2.419457,4.28905 0.839376,1.4641 2.783877,1.86384 4.19134,0.86163 z m 52.38223,0.20029 c 2.646447,-1.28113 1.678438,-5.40392 -1.26881,-5.40392 -2.953563,0 -3.953649,4.02422 -1.333925,5.36754 1.04021,0.5334 1.560995,0.54067 2.602735,0.0364 z m -26.514226,-0.37158 c 1.331021,0 2.331224,-2.39731 1.594555,-3.82187 -1.18139,-2.28455 -5.080521,-1.40897 -5.080521,1.14088 0,1.51289 1.69374,3.16363 2.840918,2.76879 0.140302,-0.0483 0.430573,-0.0878 0.645048,-0.0878 z M 58.046467,124.30864 c 0.218839,-0.54764 -0.113599,-1.05348 -0.692339,-1.05348 -0.50712,0 -4.769208,4.00521 -7.359514,6.91595 l -1.126139,1.26545 0.316606,0.806 0.316605,0.806 4.195849,-4.17842 c 2.307717,-2.29813 4.264737,-4.3508 4.348932,-4.5615 z m 5.447411,8.13099 c 1.231988,-1.0817 1.337233,-2.42746 0.292636,-3.74192 l -0.56159,-0.70666 -3.41e-4,-2.79892 -3.42e-4,-2.79891 3.448108,-3.42418 3.448107,-3.42418 v -4.94014 c 0,-5.50007 -0.0065,-5.54611 -0.779924,-5.54611 -0.8796,0 -0.943959,0.36079 -0.943959,5.29162 v 4.55064 l -3.39988,3.29511 -3.39988,3.29511 -0.06092,3.07421 -0.06092,3.07421 -0.823982,0.48289 c -1.281611,0.75107 -1.783717,2.16913 -1.179344,3.33071 0.850154,1.63397 2.753217,2.10073 4.022233,0.98652 z m 25.613573,-0.18749 0.231202,-0.77168 -3.814936,-3.86912 c -4.75842,-4.82601 -4.728161,-4.80291 -5.40474,-4.12633 -0.55279,0.55279 -0.162791,1.06299 4.026337,5.26725 4.614938,4.63161 4.621645,4.63634 4.962137,3.49988 z m -13.538893,-3.10178 c 0.602414,-0.86007 0.133528,-1.87281 -0.867086,-1.87281 -0.666822,0 -1.13325,0.45273 -1.13325,1.09997 0,1.10289 1.392367,1.64083 2.000336,0.77284 z m -28.624751,-3.11784 c 0,-0.15802 0.185332,-0.47264 0.411848,-0.69916 0.330383,-0.33038 0.367725,-0.47246 0.188781,-0.71828 -0.122687,-0.16854 -0.386108,-0.55295 -0.58538,-0.85424 l -0.362313,-0.5478 -0.24084,0.45203 c -0.132462,0.24861 -0.377601,0.55472 -0.544752,0.68024 -0.252649,0.18971 -0.262601,0.28664 -0.059,0.57463 0.134704,0.19053 0.393286,0.5829 0.574628,0.87195 0.365158,0.58202 0.617026,0.68025 0.617026,0.24063 z m 45.097302,-0.54024 c 0.518819,-0.76452 0.60894,-1.08787 0.303202,-1.08787 -0.102643,0 -0.328702,-0.27475 -0.502354,-0.61055 l -0.31573,-0.61056 -0.545978,0.65844 c -0.300287,0.36215 -0.548296,0.71535 -0.55113,0.78491 -0.0066,0.16282 1.002213,1.70738 1.070556,1.63904 0.02839,-0.0284 0.272031,-0.37642 0.541434,-0.77341 z M 69.50752,125.13227 c 0.614963,-0.61496 0.132602,-1.68557 -0.759431,-1.68557 -0.530126,0 -0.926144,0.43923 -0.926144,1.02721 0,0.71425 1.171946,1.17199 1.685575,0.65836 z m -27.735361,-3.76653 c 0.80556,-0.87836 0.93627,-0.94687 1.99828,-1.04732 l 1.136339,-0.10748 2.457484,-2.4524 2.457485,-2.4524 4.402677,-0.0608 c 4.345382,-0.06 4.40391,-0.0663 4.497342,-0.47885 0.05206,-0.22992 0.116891,-2.24407 0.144058,-4.47589 l 0.04939,-4.05786 1.771768,-1.80627 c 1.778857,-1.8135 2.055912,-2.34132 1.479897,-2.81937 -0.425968,-0.35353 -0.754448,-0.1357 -2.989112,1.98216 l -1.986436,1.8826 -0.09577,3.95944 -0.09577,3.95945 -3.830851,0.0989 c -4.51029,0.11639 -3.990361,-0.10032 -6.849502,2.85493 -2.703505,2.79438 -3.297824,2.98845 -4.738822,1.54746 -2.207749,-2.20775 -5.889648,0.68999 -4.162232,3.27578 1.097731,1.6432 2.951048,1.72748 4.353775,0.19799 z m 34.669012,0.26149 c 1.910127,-1.83002 0.357802,-5.09017 -2.195603,-4.61115 -2.351039,0.44106 -2.962921,3.55689 -0.96466,4.91226 0.853206,0.5787 2.395297,0.43177 3.160263,-0.30111 z m 23.171089,0.42517 c 0.73868,-0.37377 1.34655,-1.42299 1.34655,-2.32421 0,-2.40086 -2.493301,-3.58731 -4.369941,-2.07946 -0.674576,0.54202 -0.816812,0.57324 -3.201437,0.70282 -2.900624,0.15761 -3.046029,0.12186 -3.553978,-0.87381 -1.546301,-3.031 -6.087375,-0.87759 -4.605341,2.18388 0.823621,1.70137 2.880647,2.02807 4.35189,0.69117 0.362507,-0.3294 0.673919,-0.35933 3.239326,-0.31126 l 2.838262,0.0532 0.422759,0.75564 c 0.704719,1.25963 2.326983,1.81175 3.53191,1.20205 z m -46.922176,-1.47884 c 0.965836,-0.96583 -0.183675,-2.39788 -1.298178,-1.61725 -0.832997,0.58345 -0.333482,1.86891 0.771436,1.98521 0.07901,0.008 0.316045,-0.15726 0.526742,-0.36796 z m 28.880306,-2.97977 c 0.504094,-0.35308 0.550129,-0.97074 0.108704,-1.45851 -0.577695,-0.63835 -1.598425,-0.17727 -1.598425,0.72203 0,0.37205 0.613333,1.03466 0.957713,1.03466 0.05847,0 0.29787,-0.13418 0.532008,-0.29818 z m -44.681274,-3.73187 c 0.163291,-0.96651 0.867446,-1.82294 1.623068,-1.97406 0.750988,-0.1502 0.734469,-0.43714 -0.04413,-0.76665 -0.88465,-0.37438 -1.348237,-0.97285 -1.472494,-1.90093 -0.156223,-1.16682 -0.721724,-1.23251 -0.900511,-0.10459 -0.137369,0.86663 -1.100059,2.07229 -1.654667,2.07229 -0.772602,0 -0.738073,0.55311 0.04774,0.76471 0.814819,0.2194 1.535549,1.05678 1.53705,1.78582 0.0024,1.17993 0.669357,1.2752 0.86395,0.12341 z m 65.102684,0.66239 c 0.0639,-0.16664 0.11626,-0.54289 0.11626,-0.83611 0,-0.70639 0.62114,-1.46527 1.44237,-1.76223 0.8019,-0.28997 0.83842,-0.49008 0.13786,-0.75549 -0.82507,-0.31259 -1.38586,-0.95087 -1.50833,-1.71676 -0.21296,-1.33179 -0.68971,-1.49504 -0.94217,-0.32263 -0.23167,1.07586 -0.63205,1.63284 -1.425327,1.98283 -0.939187,0.41437 -0.950971,0.50595 -0.104482,0.81205 0.733509,0.26524 1.442369,1.03873 1.442369,1.57388 0,0.94215 0.59504,1.6666 0.84145,1.02446 z m -37.535531,-2.10499 c 0.6506,-0.6506 0.169195,-1.80597 -0.752488,-1.80597 -0.577879,0 -1.053484,0.4756 -1.053484,1.05348 0,0.24832 0.135448,0.58694 0.300995,0.75249 0.165548,0.16555 0.504167,0.301 0.752489,0.301 0.248321,0 0.586941,-0.13545 0.752488,-0.301 z m 30.564719,-0.2628 c 1.814204,-1.26302 1.708819,-3.65971 -0.205159,-4.66577 -1.5265,-0.80238 -3.085655,0.0251 -3.808541,2.02123 l -0.190755,0.52674 h -7.92407 c -8.838907,0 -8.960441,0.018 -8.401026,1.24581 0.266856,0.58568 -0.513352,0.54316 8.859076,0.48282 7.118742,-0.0458 7.826124,-0.0216 8.426632,0.28897 1.363184,0.70493 2.332216,0.73486 3.243843,0.1002 z m -49.351681,-0.46503 c 0.345742,-0.14446 0.910478,-0.61853 1.25497,-1.05348 l 0.626348,-0.79083 h 2.090873 c 3.978437,0 4.098767,-1.45715 0.129202,-1.56457 l -2.348036,-0.0635 -0.791522,-0.81406 c -2.277995,-2.34285 -5.777734,0.73996 -3.883549,3.42089 0.690747,0.97765 1.839205,1.31789 2.921714,0.86559 z m 33.373796,-5.98287 c 1.947292,-0.92405 1.84562,-3.75175 -0.170432,-4.74004 -0.953301,-0.46732 -1.869617,-0.29274 -2.76358,0.52652 -2.16726,1.98614 0.265497,5.47982 2.934012,4.21352 z m 8.626251,-0.75362 c 0.44878,-0.68493 0.110003,-1.42873 -0.650738,-1.42873 -0.681899,0 -1.000128,0.3139 -1.000128,0.98651 0,0.94718 1.122914,1.24797 1.650866,0.44222 z m -35.209121,0.0653 c 0.656925,-0.65693 -0.261397,-1.9487 -1.075568,-1.51297 -0.851678,0.4558 -0.626699,1.74282 0.304657,1.74282 0.297583,0 0.644493,-0.10344 0.770911,-0.22985 z m -11.219314,-1.0339 c 0.465505,-1.02168 -1.233377,-2.03234 -1.760532,-1.04735 -0.290764,0.5433 -0.248916,0.74555 0.259458,1.25392 0.547612,0.54761 1.19824,0.45807 1.501074,-0.20657 z m 57.376758,0.39095 c 0.788688,-0.55241 0.417546,-1.80879 -0.534332,-1.80879 -0.74807,0 -1.236258,0.69783 -0.972856,1.39063 0.280379,0.73745 0.832599,0.89067 1.507188,0.41816 z M 84.641284,99.347341 c -0.04968,-0.430067 -0.153066,-0.513859 -0.633993,-0.513859 -0.691841,0 -0.936164,0.76852 -0.374816,1.178988 0.503809,0.36839 1.084015,-0.01415 1.008809,-0.665129 z m -28.618525,0.288197 c 0.299542,-0.493217 -0.511106,-1.177759 -1.051951,-0.888308 -0.357597,0.19138 -0.499249,0.941938 -0.22881,1.212377 0.241724,0.241723 1.063411,0.03381 1.280761,-0.324069 z m 14.118714,-6.500447 c 0.809379,-1.101718 2.660579,-4.881765 2.660579,-5.432754 0,-1.680269 -3.277533,-3.225158 -5.075878,-2.392551 -2.344259,1.085356 -2.402699,2.571362 -0.241831,6.149308 1.660274,2.749068 1.802767,2.838946 2.65713,1.675997 z M 56.583897,89.705939 c 4.892614,-1.612874 7.276748,-7.312366 4.300107,-10.279805 -1.533353,-1.528614 -1.610136,-1.514299 -1.614358,0.300979 -0.01414,6.079886 -8.089514,8.271665 -10.763133,2.921278 -1.203539,-2.408495 -0.943684,-4.772645 0.774026,-7.042054 0.516042,-0.681786 0.912487,-1.264022 0.880989,-1.293857 -0.0315,-0.02984 -0.724668,-0.16569 -1.540378,-0.301899 l -1.483109,-0.247652 -0.583835,0.559349 c -6.968433,6.676183 0.711334,18.455503 10.029691,15.383661 z m 31.734728,0.04354 c 5.677078,-1.766905 8.163572,-9.314434 4.71649,-14.316482 -1.050601,-1.524524 -1.314205,-1.643465 -3.045724,-1.374272 -1.715813,0.266752 -1.739836,0.31659 -0.697611,1.447269 4.486461,4.867236 -0.77021,12.409437 -6.645526,9.534913 -1.897786,-0.9285 -3.205161,-3.071609 -3.238485,-5.308674 -0.02448,-1.643241 -0.0043,-1.633955 -1.315462,-0.604855 -5.565538,4.368199 2.70809,12.962037 10.226318,10.622101 z M 55.637035,79.175524 c 1.185624,-0.540207 1.104794,-2.308438 -0.133296,-2.91595 -1.21086,-0.59415 -2.239027,0.05262 -2.239027,1.408456 0,1.374855 1.112238,2.081627 2.372323,1.507494 z m 31.855067,-0.197441 c 0.519314,-0.430992 0.651997,-1.086196 0.360998,-1.782653 -0.736894,-1.763638 -2.983867,-1.254528 -2.983867,0.676072 0,1.301293 1.583351,1.969305 2.622869,1.106581 z M 71.290929,65.409307 c 0.07268,-0.263371 0.140731,-1.840094 0.151232,-3.50383 l 0.01909,-3.024973 1.53234,-1.481733 c 1.137803,-1.100226 1.532341,-1.60917 1.532341,-1.976681 0,-0.272221 0.258582,-0.820331 0.574627,-1.218022 1.101933,-1.386602 0.285999,-3.351995 -1.391583,-3.351995 -1.771913,0 -2.684254,2.419459 -1.375848,3.648643 0.632857,0.594538 0.606986,0.699276 -0.433706,1.755855 -1.170794,1.188667 -1.236657,1.176631 -2.98042,-0.544678 -1.421052,-1.402752 -1.480173,-1.496429 -1.480861,-2.346396 -0.0019,-2.334912 -2.377192,-3.356251 -3.603722,-1.549537 -0.910569,1.341294 -0.156717,2.91198 1.526815,3.181187 0.644446,0.103052 1.080669,0.419245 2.577407,1.868223 l 1.801667,1.744176 -0.0015,3.457343 c -0.0016,3.706598 0.06573,3.982068 0.947323,3.877392 0.315943,-0.03751 0.516433,-0.214867 0.604765,-0.534974 z m -6.451575,-0.875623 c 0.242651,-0.242651 0.300996,-0.78195 0.300996,-2.782199 v -2.481203 l -1.182333,-1.28808 C 63.307733,57.273757 62.740658,56.651024 62.697849,56.59835 62.655039,56.54567 61.924372,56.459481 61.07414,56.406807 l -1.545875,-0.09577 -0.266682,-0.917534 c -0.595813,-2.049929 -2.878272,-2.115819 -3.710307,-0.107111 -0.788943,1.904677 0.532866,2.859535 3.748149,2.707613 l 2.337221,-0.110433 0.842025,0.893436 0.842025,0.893436 0.09577,2.265923 c 0.115244,2.726656 0.532287,3.487919 1.422887,2.597318 z m 10.2229,-0.503483 c 0.146128,-0.146129 0.229851,-0.884839 0.229851,-2.028042 v -1.79819 l 1.042292,-1.084525 1.042291,-1.084525 2.261818,-0.01068 c 2.797549,-0.01321 3.698386,-0.521667 3.698386,-2.087468 0,-2.449503 -3.623087,-2.9822 -4.130347,-0.607279 -0.192178,0.899749 -0.37825,1.030128 -1.672496,1.171903 -1.408929,0.154337 -3.641984,2.165858 -3.893655,3.50738 -0.462392,2.464759 0.436423,5.006863 1.42186,4.021426 z"
         id="path304" /><path
         style="fill:#3cace5"
         d="m 28.205804,185.87528 c -4.384332,-0.56893 -7.265838,-3.38304 -7.464104,-7.28952 -0.11127,-2.19237 -0.389748,-1.46312 8.475157,-22.19374 6.291917,-14.71368 5.808626,-12.40865 3.15328,-15.03936 -14.570343,-14.43514 -14.082364,-36.49089 1.069921,-48.358382 1.912506,-1.497904 1.89173,-1.457497 1.350282,-2.626157 -2.953061,-6.373879 -2.942792,-14.789765 0.02639,-21.626159 L 35.509498,67.146895 34.57055,66.07218 c -1.828323,-2.092687 -2.598116,-3.075564 -3.660646,-4.67394 -1.09095,-1.641128 -2.807699,-5.067694 -3.412433,-6.811087 -1.431957,-4.128208 1.423298,-6.89847 4.666538,-4.527628 2.535581,1.853536 3.368345,2.37029 6.188933,3.840403 3.558712,1.854829 3.261615,1.83229 4.588821,0.348136 11.269373,-12.60203 32.74754,-14.718726 47.188402,-4.650467 1.920229,1.338795 5.337103,4.296063 5.659269,4.898036 0.597693,1.1168 0.927851,1.094134 3.680285,-0.252655 2.688911,-1.315708 4.994111,-2.73631 6.212351,-3.828421 3.36212,-3.01404 6.75931,-0.210555 5.24802,4.330866 -1.14802,3.449792 -3.95021,8.124232 -6.60341,11.015371 l -1.24098,1.352274 0.7617,1.756185 c 2.85832,6.590185 2.93195,14.703422 0.18952,20.88184 -0.8502,1.915424 -0.84772,2.012779 0.0664,2.606371 15.79966,10.259866 16.78817,35.374136 1.93819,49.242386 -1.7033,1.59069 -1.69743,1.56751 -0.53927,2.13019 14.94363,7.26017 16.23743,29.12726 2.27311,38.4188 -4.61283,3.06927 -6.37249,3.45342 -15.819022,3.45342 h -7.565931 l -1.311525,-0.62116 c -1.77836,-0.84226 -2.66963,-1.58918 -3.498271,-2.93169 -0.79884,-1.29422 -0.800555,-1.29415 -1.566275,0.0626 -2.382758,4.22202 -9.181477,5.22927 -13.180123,1.95268 -1.013275,-0.8303 -1.078124,-0.82808 -2.100889,0.0722 -3.175804,2.79545 -10.187177,2.27157 -13.255571,-0.99045 -0.909762,-0.96717 -2.342372,-3.47011 -2.342372,-4.0924 0,-0.55135 -0.776818,-0.6662 -3.570261,-0.52784 l -2.772296,0.13732 -0.83851,1.79436 c -2.108698,4.51249 -5.757147,6.19484 -11.748479,5.41737 z m 4.873404,-6.09843 c 1.097823,-0.49854 1.630248,-1.28608 2.870653,-4.24615 0.592377,-1.41364 1.175047,-2.63358 1.29482,-2.71097 0.625735,-0.40436 13.510789,-0.15726 13.735924,0.26341 0.120684,0.22549 0.688388,1.53984 1.261564,2.92077 1.467313,3.53511 2.14103,4.13938 4.615113,4.13938 4.46518,0 4.784704,-1.88286 1.592742,-9.38558 -8.875039,-20.86083 -9.212987,-21.6159 -10.004764,-22.35324 -1.698452,-1.58168 -6.338719,-1.85052 -8.29838,-0.48078 -1.273136,0.88988 -1.141304,0.6041 -10.754247,23.31288 -2.45215,5.79274 -2.628636,6.50812 -1.885417,7.64241 0.800367,1.22152 3.796243,1.70427 5.571992,0.89787 z m 7.251814,-14.62176 c -0.228606,-0.61976 3.567917,-9.21709 3.907775,-8.84927 0.346559,0.37509 3.497604,8.55202 3.396808,8.81469 -0.144304,0.37605 -7.166367,0.40929 -7.304583,0.0346 z m 32.093017,14.55723 c 0.586704,-0.29663 1.032229,-0.72478 1.42927,-1.37353 l 0.576854,-0.94257 0.05173,-13.29263 c 0.05581,-14.34111 0.05617,-14.33519 -0.967969,-15.50163 -2.090443,-2.38088 -5.882902,-1.62205 -6.746896,1.34998 -0.535991,1.84375 -0.336649,26.95014 0.222226,27.98862 1.102788,2.04914 3.402994,2.79902 5.43479,1.77176 z m 27.481284,-0.13378 c 15.640017,-5.09986 15.986827,-26.17316 0.521437,-31.68443 l -1.670693,-0.59537 -5.650505,-0.068 c -7.297725,-0.0878 -8.24016,0.12899 -9.347484,2.15053 -0.41328,0.75449 -0.618223,26.42031 -0.221929,27.79313 0.427438,1.48069 1.50051,2.46318 3.056966,2.79891 1.704834,0.36773 11.9011,0.0654 13.312208,-0.39476 z m -8.159242,-7.21472 c -0.103948,-0.12555 -0.156255,-3.79562 -0.126943,-8.90673 l 0.04985,-8.69318 2.188533,-0.0545 c 11.335509,-0.28214 14.345559,14.57257 3.557744,17.55758 -1.069591,0.29596 -5.442482,0.37064 -5.669189,0.0968 z M 55.942489,142.457 c 1.465167,-0.73612 2.044185,-2.94709 1.154108,-4.40693 -1.649326,-2.70511 -5.927095,-1.26936 -5.704344,1.91455 0.155811,2.22711 2.51078,3.51704 4.550236,2.49238 z m 29.933686,-0.14885 c 2.189866,-1.48805 1.49226,-4.90406 -1.150509,-5.63377 -2.019403,-0.55758 -4.199483,1.57145 -3.798391,3.70945 0.391027,2.08436 3.140222,3.15335 4.9489,1.92432 z m -20.963774,-1.84917 c 0.08433,-0.72995 -0.535013,-1.04604 -1.120561,-0.57189 -0.367076,0.29724 -0.394395,0.405 -0.196446,0.77487 0.340179,0.63563 1.236076,0.49755 1.317007,-0.20298 z m 10.071849,0.17866 c 0.152471,-0.24322 0.152471,-0.42717 0,-0.6704 -0.537019,-0.85667 -1.695813,-0.16239 -1.218265,0.72991 0.250237,0.46757 0.907998,0.43544 1.218265,-0.0595 z m -30.646207,-2.87629 c 1.792472,-1.02763 1.974034,-3.44923 0.37224,-4.96477 -2.582801,-2.44371 -6.394288,0.86027 -4.574539,3.96544 0.833347,1.422 2.693483,1.86435 4.202299,0.99933 z m 52.936003,-0.0777 c 3.250364,-2.42675 0.110226,-7.35012 -3.344021,-5.24304 -2.096509,1.27887 -1.854803,4.43637 0.420564,5.49399 0.76284,0.35457 2.28774,0.22368 2.923457,-0.25095 z m -26.05047,-0.44485 c 2.127409,-1.2971 1.71055,-4.59367 -0.680673,-5.38284 -1.429115,-0.47166 -3.23243,0.31996 -3.794765,1.66582 -1.080045,2.58491 2.057844,5.19104 4.475438,3.71702 z m 18.053439,-4.6995 c 0.394911,-0.973 0.404988,-1.08597 0.123872,-1.38869 -2.917846,-3.14205 -8.191305,-8.27854 -8.499303,-8.27854 -0.555243,0 -1.395543,0.7237 -1.395543,1.20189 0,0.37117 8.855304,9.5245 9.214387,9.5245 0.06969,0 0.320152,-0.47663 0.556587,-1.05916 z M 56.71278,126.38435 c 2.102514,-2.19926 2.333898,-3.51228 0.618945,-3.51228 -0.530892,0 -8.348314,7.54333 -8.582682,8.28176 -0.114956,0.3622 0.219878,1.60816 0.540873,2.01267 0.203967,0.25703 4.072341,-3.27744 7.422864,-6.78215 z m 6.873648,6.4633 c 1.367459,-0.97371 1.632258,-2.72159 0.628133,-4.14615 l -0.606552,-0.86052 v -2.71232 -2.71232 l 3.399881,-3.29089 3.39988,-3.29088 0.05692,-5.12049 c 0.06305,-5.67119 -0.0024,-6.04159 -1.066938,-6.03562 -1.28643,0.007 -1.384268,0.40226 -1.384268,5.58915 v 4.46801 l -3.351995,3.34789 -3.351994,3.34789 v 2.8273 c 0,2.62801 -0.02807,2.85094 -0.398246,3.16251 -2.255564,1.89848 -2.601462,2.98599 -1.474808,4.63682 0.934818,1.36974 2.829108,1.73017 4.149983,0.78962 z m 12.125904,-3.47081 c 0.674916,-0.67491 0.650675,-1.55801 -0.05894,-2.14717 -0.938003,-0.77879 -2.468256,-0.0366 -2.468256,1.19714 0,1.39521 1.51318,1.96405 2.527196,0.95003 z m -38.249881,-2.55727 c 0,-0.99709 -1.214869,-1.19476 -1.404883,-0.22858 -0.124374,0.63241 0.128648,0.90533 0.781053,0.84245 0.54636,-0.0526 0.62383,-0.12889 0.62383,-0.61387 z m 64.924359,0.29342 c 0.22183,-0.69893 -0.31238,-1.29831 -0.94186,-1.05676 -0.39561,0.15181 -0.56076,0.80484 -0.28697,1.13474 0.33085,0.39865 1.0929,0.35029 1.22883,-0.078 z m -55.142111,-0.87483 c 0.06416,-0.25561 0.281283,-0.61375 0.482505,-0.79585 0.504426,-0.4565 0.460185,-0.78412 -0.208769,-1.54602 -0.316045,-0.35995 -0.574628,-0.73766 -0.574628,-0.83934 0,-0.40978 -0.560949,-0.14705 -0.934382,0.43764 -0.218676,0.34238 -0.504437,0.76947 -0.635023,0.9491 -0.197189,0.27124 -0.167636,0.40109 0.174373,0.76617 0.226491,0.24177 0.501604,0.67661 0.611362,0.96632 0.25705,0.67848 0.920316,0.71639 1.084562,0.062 z m 44.89652,-0.28841 c 0.211333,-0.41425 0.471667,-0.80721 0.578521,-0.87325 0.254736,-0.15743 0.251692,-0.86363 -0.0037,-0.86363 -0.108901,0 -0.375997,-0.30168 -0.593547,-0.6704 -0.519328,-0.88019 -0.733981,-0.84718 -1.492979,0.22962 -0.500401,0.70992 -0.589523,0.96277 -0.421963,1.19714 0.116835,0.16342 0.387469,0.62035 0.601411,1.01541 0.496758,0.9173 0.851247,0.90801 1.33228,-0.0349 z m -22.439966,-0.59509 c 0.88651,-0.82591 0.348296,-2.29105 -0.841608,-2.29105 -1.221943,0 -1.805218,1.35687 -0.950635,2.21145 0.572367,0.57237 1.231882,0.60166 1.792243,0.0796 z m -28.45764,-2.9885 c 0.288716,-0.14753 0.670558,-0.50347 0.848539,-0.79099 0.514613,-0.83132 0.837379,-1.00161 1.898454,-1.00161 h 0.995973 l 2.598632,-2.49005 2.598632,-2.49005 h 4.211169 c 5.314868,0 4.807519,0.5313 4.807519,-5.03457 v -4.18315 l 1.449119,-1.37685 c 2.210266,-2.10003 2.670223,-3.20669 1.57615,-3.79222 -0.628159,-0.33618 -1.284467,0.0927 -3.419958,2.23498 l -1.999593,2.00593 -0.09577,3.8758 -0.09577,3.87579 -3.876481,0.0958 -3.876481,0.0958 -2.447087,2.44216 c -2.828858,2.82318 -3.396902,3.05503 -4.533766,1.85052 -2.315774,-2.45357 -6.374971,0.32068 -4.906791,3.35354 0.794592,1.6414 2.572687,2.19524 4.267513,1.32922 z m 34.749525,-3.2e-4 c 2.742944,-1.30161 1.775422,-5.67612 -1.250219,-5.65268 -1.821324,0.0141 -2.98067,1.18704 -2.98067,3.01559 0,2.18937 2.236613,3.58344 4.230889,2.63709 z m 23.746113,0.002 c 0.813459,-0.38601 1.602639,-1.67279 1.602639,-2.61314 0,-2.77409 -2.86745,-4.10711 -5.00077,-2.32477 l -0.78175,0.65313 H 93.1001 90.64083 l -0.543421,-0.80914 c -1.409079,-2.09806 -3.707847,-2.23768 -4.988184,-0.30297 -1.898969,2.86954 2.351656,6.34505 4.53809,3.71056 0.20535,-0.24743 0.743758,-0.29994 3.075377,-0.29994 h 2.826447 l 0.230182,0.55571 c 0.621832,1.50123 2.432524,2.15536 3.95993,1.43056 z M 53.059267,120.6435 c 0.740214,-0.94103 0.05938,-2.36845 -1.12967,-2.36845 -0.423457,0 -1.346481,1.02082 -1.346481,1.48914 0,1.26324 1.699443,1.86674 2.476151,0.87931 z m 28.922925,-3.06468 c 0.489984,-0.62291 0.501505,-1.04768 0.04375,-1.61298 -0.742932,-0.91749 -2.328359,-0.30883 -2.328359,0.89386 0,1.14918 1.560059,1.64024 2.284609,0.71912 z m -44.846877,-3.32781 c 0.415626,-1.44474 0.65597,-1.76925 1.524277,-2.05804 1.120713,-0.37274 1.107768,-0.89271 -0.03441,-1.3823 -0.914523,-0.39201 -1.258499,-0.83859 -1.258499,-1.63389 0,-1.21936 -1.210387,-1.82053 -1.44618,-0.71828 -0.316184,1.47804 -0.565518,1.8632 -1.527184,2.35911 -1.173366,0.60509 -1.281032,1.12751 -0.282859,1.3725 0.854203,0.20966 1.445465,0.86825 1.620551,1.80508 0.277652,1.48563 1.012026,1.61941 1.404307,0.25582 z m 64.927175,0.71993 c 0.10608,-0.13168 0.25236,-0.54111 0.32507,-0.90983 0.25033,-1.26955 0.33171,-1.37805 1.38213,-1.8426 1.22806,-0.5431 1.22984,-0.77462 0.0105,-1.35895 -0.96101,-0.46052 -1.17225,-0.74027 -1.36464,-1.80719 -0.27424,-1.52081 -1.01356,-1.45396 -1.55248,0.14036 -0.35033,1.0364 -0.46907,1.17938 -1.388688,1.6722 -1.253857,0.67194 -1.251939,0.79356 0.02139,1.35669 1.049618,0.46419 1.463068,1.06245 1.463068,2.11708 0,0.73343 0.69941,1.13408 1.10368,0.63224 z M 64.6702,112.63325 c 0.911351,-0.91135 0.290014,-2.40299 -1.000957,-2.40299 -0.609074,0 -1.402031,0.81249 -1.402031,1.43657 0,0.27295 0.211567,0.70784 0.470149,0.96642 0.258583,0.25858 0.693472,0.47015 0.96642,0.47015 0.272948,0 0.707836,-0.21157 0.966419,-0.47015 z m 30.722659,-0.28803 c 2.64123,-1.88072 0.64091,-6.20029 -2.485564,-5.36742 -0.799987,0.21311 -1.828709,1.21572 -2.012441,1.96136 -0.187518,0.761 0.230531,0.72162 -8.321595,0.78383 -8.59547,0.0625 -8.478295,0.0464 -8.478295,1.16692 0,1.28456 -0.209609,1.25491 8.936415,1.26381 7.85449,0.008 8.287018,0.0263 8.924928,0.38594 0.924744,0.52129 2.561454,0.42868 3.436552,-0.19444 z m -49.198682,-0.50243 c 0.272468,-0.13703 0.722211,-0.54652 0.999429,-0.90997 l 0.504033,-0.66082 2.180011,-0.0692 c 2.36857,-0.0752 2.812434,-0.246 2.812434,-1.08228 0,-1.01827 -0.414459,-1.18877 -2.889782,-1.18877 h -2.255781 l -0.411229,-0.57751 c -1.577143,-2.2149 -5.259014,-0.94109 -5.217499,1.80508 0.03556,2.35237 2.216617,3.72036 4.278384,2.68347 z m 33.311864,-5.99306 c 1.342696,-0.97433 1.709428,-2.57321 0.897749,-3.91403 -1.599852,-2.642799 -5.493281,-1.58115 -5.494472,1.49823 -8.49e-4,2.19268 2.843907,3.68774 4.596723,2.4158 z m 8.367382,-0.46852 c 0.74737,-0.74737 0.180625,-2.23802 -0.850894,-2.23802 -0.67117,0 -1.387126,0.7021 -1.387126,1.36028 0,1.05756 1.478386,1.63737 2.23802,0.87774 z m -35.183339,-0.13105 c 0.771782,-0.77178 0.258589,-2.10697 -0.809835,-2.10697 -0.79875,0 -1.297133,0.48559 -1.297133,1.26385 0,1.10076 1.320799,1.62929 2.106968,0.84312 z m -11.45975,-0.70009 c 0.473917,-0.42889 0.456311,-1.49239 -0.0328,-1.98151 -0.786212,-0.78621 -2.154854,-0.24464 -2.154854,0.85268 0,1.22735 1.323927,1.9105 2.187657,1.12883 z m 57.897957,-0.1087 c 0.948419,-1.35406 -0.84242,-3.03072 -2.000335,-1.87281 -0.468386,0.46839 -0.502236,1.46629 -0.06609,1.94823 0.467612,0.51671 1.682743,0.47235 2.06642,-0.0754 z m -43.098879,-4.23414 c 0.400169,-0.292613 0.459334,-1.142487 0.108927,-1.564701 -0.316503,-0.381363 -1.12876,-0.366268 -1.565633,0.0291 -1.000713,0.905633 0.358595,2.338561 1.456706,1.535601 z m 28.730368,-0.0466 c 0.356203,-0.356205 0.396579,-1.250688 0.07114,-1.576123 -0.637342,-0.637342 -1.877117,-0.04637 -1.877117,0.894777 0,0.939896 1.123538,1.363776 1.805973,0.681346 z M 62.997754,97.421424 c 0.04806,-0.481384 -0.02747,-0.634825 -0.375941,-0.763733 -0.878365,-0.324928 -1.664238,0.315242 -1.401853,1.141945 0.31557,0.994273 1.669526,0.706229 1.777794,-0.378212 z m 14.363011,0.703351 c 0.41384,-0.413841 0.277826,-1.288844 -0.236791,-1.523319 -0.594998,-0.271099 -1.010813,-0.1092 -1.289289,0.501989 -0.391043,0.858245 0.855149,1.69226 1.52608,1.02133 z m -7.140347,-4.70237 c 0.647906,-0.869044 2.614718,-4.673991 2.859681,-5.532269 0.341912,-1.197957 -2.451575,-3.23287 -4.241026,-3.089371 -3.831069,0.30722 -4.074063,3.333238 -0.653879,8.142784 1.169104,1.644021 1.166929,1.643509 2.035224,0.478856 z M 55.614902,90.219952 c 7.09316,-1.503072 9.270781,-10.408203 3.482692,-14.242074 -1.241069,-0.82205 -1.326719,-0.774195 -0.710963,0.39724 3.186757,6.062591 -4.655811,12.310734 -9.033213,7.196725 -2.476867,-2.893663 -0.79212,-9.194275 2.63017,-9.836301 1.116605,-0.209476 1.014705,-0.426528 -0.402303,-0.856931 -5.02354,-1.525853 -9.397189,4.977757 -7.349028,10.927995 1.71237,4.974711 6.210816,7.509279 11.382645,6.413346 z m 31.574583,0.09012 c 2.304785,-0.427364 4.70774,-2.065054 6.088358,-4.149407 4.002964,-6.043372 -0.156508,-15.102688 -6.104685,-13.295985 -1.557158,0.472973 -1.660813,0.656194 -0.532157,0.94064 3.885248,0.979168 5.367943,7.066298 2.435483,9.998758 -4.652905,4.652906 -11.828874,-1.40789 -8.722694,-7.367154 0.745834,-1.430896 0.70603,-1.483387 -0.512703,-0.676132 -7.600008,5.034036 -1.925613,16.268914 7.348398,14.54928 z M 51.239833,79.665545 c 0.59004,-0.590039 0.243227,-1.422887 -0.592515,-1.422887 -1.058199,0 -0.908423,1.584277 0.161544,1.708761 0.07149,0.0083 0.265424,-0.120326 0.430971,-0.285874 z m 31.221436,0 c 0.543119,-0.543118 0.170884,-1.61443 -0.560946,-1.61443 -0.804667,0 -1.113034,1.143204 -0.436237,1.617251 0.530203,0.371368 0.623257,0.371105 0.997183,-0.0028 z M 56.152584,79.023562 c 1.496593,-1.496593 -0.323044,-4.03831 -2.18218,-3.048128 -0.542248,0.288803 -0.842469,0.705348 -0.971531,1.347963 -0.366778,1.826224 1.838687,3.015189 3.153711,1.700165 z m 31.727123,-0.102343 c 1.072566,-1.246932 -0.243828,-3.428082 -1.855338,-3.074135 -1.489716,0.327197 -1.948532,2.565685 -0.709507,3.461575 0.638051,0.46135 2.01346,0.253584 2.564845,-0.38744 z M 71.314344,66.03182 c 0.234347,-0.265787 0.312452,-1.019064 0.377178,-3.637651 l 0.08163,-3.302451 1.567934,-1.606366 c 0.996101,-1.020515 1.567935,-1.759275 1.567935,-2.025634 0,-0.230598 0.219604,-0.707185 0.488009,-1.059082 0.973705,-1.276593 0.744797,-2.769764 -0.545194,-3.556317 -2.267322,-1.382468 -4.57609,1.577765 -2.921957,3.746444 l 0.465446,0.610231 -0.809485,0.794449 c -1.032916,1.013731 -0.953897,1.030706 -2.512255,-0.539686 -1.261533,-1.271275 -1.321887,-1.373249 -1.280941,-2.164272 0.123308,-2.382121 -3.015118,-3.741853 -4.187393,-1.8142 -1.093569,1.798229 0.0051,3.953638 2.026545,3.975887 0.203773,0.0022 1.124695,0.740118 2.046494,1.639723 l 1.675997,1.635646 v 3.393535 c 0,4.070517 0.659103,5.385235 1.960058,3.909744 z m -6.261059,-1.284206 c 0.446847,-0.446847 0.47015,-0.583888 0.47015,-2.764897 0,-2.800653 -0.03744,-2.903975 -1.666211,-4.598623 l -1.307491,-1.360372 h -1.371068 c -1.362823,0 -1.371816,-0.0034 -1.495302,-0.565633 -0.542006,-2.467736 -3.518297,-2.651192 -4.426593,-0.272852 -0.842144,2.205123 0.432148,3.255197 3.849989,3.172566 l 2.490054,-0.0602 0.76617,0.788108 0.76617,0.788107 0.0104,2.04946 c 0.01185,2.335252 0.113833,2.773846 0.712097,3.062591 0.613183,0.295946 0.68085,0.282529 1.201633,-0.238254 z m 10.178589,-0.520951 c 0.398931,-0.374776 0.444053,-0.590521 0.450675,-2.154854 l 0.0074,-1.73838 0.84404,-0.957712 0.84404,-0.957713 2.284123,-0.0095 c 3.079872,-0.01284 4.194011,-0.77476 3.994776,-2.731886 -0.278043,-2.731276 -4.329686,-3.010876 -4.831974,-0.333451 -0.133083,0.709395 -0.437563,0.865119 -1.700095,0.869504 -0.683201,0.0024 -0.892122,0.141626 -2.250625,1.50013 l -1.497515,1.497514 v 2.290718 c 0,3.020545 0.601155,3.903762 1.855195,2.725652 z"
         id="path303" /><path
         style="fill:#336a93"
         d="m 28.205804,185.88783 c -4.425073,-0.62006 -7.266028,-3.39934 -7.464104,-7.30207 -0.09384,-1.84889 -0.0062,-2.21585 1.20596,-5.05068 0.450471,-1.05349 1.744578,-4.11338 2.875794,-6.79976 1.131216,-2.68639 3.199645,-7.55636 4.596508,-10.82216 6.052609,-14.15071 5.603103,-11.93219 2.950175,-14.5605 -14.573321,-14.4381 -14.086307,-36.44858 1.069921,-48.354781 1.912793,-1.502624 1.891607,-1.461363 1.350282,-2.629758 -2.953061,-6.373879 -2.942792,-14.789765 0.02639,-21.626159 L 35.509498,67.146895 34.57055,66.07218 c -1.828323,-2.092687 -2.598116,-3.075564 -3.660646,-4.67394 -1.09095,-1.641128 -2.807699,-5.067694 -3.412433,-6.811087 -1.431957,-4.128208 1.423298,-6.89847 4.666538,-4.527628 2.535581,1.853536 3.368345,2.37029 6.188933,3.840403 3.562442,1.856773 3.258869,1.835359 4.609387,0.325141 12.88634,-14.410155 37.786202,-14.695119 51.978444,-0.594861 1.006913,1.000388 1.883291,1.818886 1.947506,1.818886 0.816949,0 7.350041,-3.740267 8.793791,-5.034537 3.246,-2.909941 6.59522,-0.39989 5.34124,4.002964 -0.90089,3.163114 -3.99235,8.396464 -6.70813,11.355805 l -1.25248,1.364805 0.31422,0.715814 c 1.00485,2.289066 1.41593,3.415878 1.77094,4.854247 1.48705,6.025034 1.13594,11.687242 -1.04512,16.854454 -0.49138,1.164136 -0.81797,2.178593 -0.72576,2.254349 0.0922,0.07576 0.85628,0.651126 1.69793,1.278602 15.01093,11.191063 15.47348,35.125093 0.93768,48.518933 -1.60047,1.47473 -1.65439,1.60674 -0.80077,1.96032 13.21476,5.47374 16.47274,25.03298 5.95086,35.7259 -5.13731,5.22083 -8.95279,6.44685 -19.788084,6.35847 l -6.984219,-0.057 -1.436569,-0.68925 c -1.596546,-0.766 -2.765191,-1.79618 -3.542751,-3.12298 -0.580373,-0.99033 -0.706272,-0.98044 -1.256846,0.0988 -2.227498,4.36626 -9.247523,5.51303 -13.320028,2.17592 -0.986957,-0.80874 -1.145377,-0.81746 -1.887453,-0.10385 -4.095645,3.93849 -12.702369,2.01811 -15.164654,-3.38363 -0.372911,-0.81808 -0.744654,-1.61672 -0.826097,-1.77474 -0.294524,-0.57147 -6.031716,-0.39851 -6.353536,0.19154 -0.08619,0.15802 -0.447891,0.93377 -0.803784,1.72388 -1.845951,4.09817 -6.004986,5.95292 -11.592854,5.16991 z m 4.873404,-6.11098 c 1.097823,-0.49854 1.630248,-1.28608 2.870653,-4.24615 0.592377,-1.41364 1.175047,-2.63358 1.29482,-2.71097 0.608576,-0.39327 13.510006,-0.15873 13.728522,0.24957 0.116612,0.2179 0.679916,1.52765 1.251786,2.91057 1.672671,4.04491 3.838213,5.2367 6.782085,3.73245 2.827082,-1.44456 3.139983,-0.29683 -5.781088,-21.20532 -4.921207,-11.53394 -4.799086,-11.3835 -9.251088,-11.3963 -4.400967,-0.0127 -4.241292,-0.19797 -8.57466,9.95172 -9.086783,21.28322 -8.786932,20.45228 -7.879923,21.83655 0.787755,1.20227 3.797801,1.67763 5.558893,0.87788 z m 7.259179,-14.56935 c -0.29429,-0.47617 3.559261,-9.2709 3.90041,-8.90168 0.346559,0.37509 3.497604,8.55202 3.396808,8.81469 -0.126435,0.32949 -7.096,0.41257 -7.297218,0.087 z m 32.085652,14.50482 c 0.586704,-0.29663 1.032229,-0.72478 1.42927,-1.37353 l 0.576854,-0.94257 0.05173,-13.29263 c 0.05581,-14.34111 0.05617,-14.33519 -0.967969,-15.50163 -2.088794,-2.379 -5.882901,-1.62205 -6.745683,1.34581 -0.53502,1.84041 -0.33672,26.95644 0.221013,27.99279 1.102788,2.04914 3.402994,2.79902 5.43479,1.77176 z m 27.481284,-0.13378 c 15.644907,-5.10145 15.991297,-26.15095 0.521437,-31.68693 l -1.670693,-0.59786 h -6.320904 c -9.875213,0 -9.095734,-1.40488 -9.097203,16.39619 -0.0015,17.72302 -0.73409,16.47009 9.57606,16.37688 5.28714,-0.0478 5.736727,-0.0792 6.991303,-0.48828 z m -8.159347,-7.21472 c -0.10381,-0.12546 -0.156129,-3.79937 -0.126838,-8.90673 l 0.04985,-8.69318 2.188533,-0.0545 c 10.512069,-0.26165 14.329429,12.5429 5.055947,16.95912 -1.614577,0.7689 -6.698516,1.26206 -7.167497,0.69527 z M 60.691203,148.456 c 2.880424,-7.75048 10.88445,-9.62166 16.953549,-3.9634 0.935612,0.87228 1.74159,0.91915 1.141743,0.0664 -4.614077,-6.55945 1.883622,-14.49526 8.73369,-10.66668 0.929146,0.51931 1.179899,0.57615 1.179899,0.26746 0,-1.52216 2.114042,-4.37626 3.880761,-5.2393 7.011657,-3.42516 13.276355,5.72749 7.722045,11.2818 -1.014938,1.01494 -1.056489,1.16271 -0.375043,1.33374 2.140193,0.53715 5.708113,-10.93742 6.782113,-21.81152 0.4548,-4.60477 0.97413,-3.24877 1.1688,3.05181 0.0814,2.63371 0.23471,5.17644 0.34074,5.65051 0.10603,0.47406 0.19654,0.92658 0.20112,1.00559 0.0553,0.95182 1.9061,-2.57636 2.59057,-4.93831 3.03386,-10.46924 0.003,-21.27142 -7.70906,-27.478063 -2.57396,-2.07144 -2.22464,-2.067954 -4.34243,-0.04334 -3.248145,3.105253 -6.467193,4.916833 -7.948316,4.473083 -2.299594,-0.68898 -2.190631,-2.721587 0.226874,-4.232143 7.463098,-4.663248 10.193232,-9.41198 10.190982,-17.725947 -10e-4,-4.033902 -0.25723,-5.462812 -1.462294,-8.157889 -0.673068,-1.505287 -0.665701,-1.502685 -2.299623,-0.812307 -1.641544,0.693599 -1.619235,0.638245 -0.75466,1.872466 6.298237,8.991034 0.131898,22.042317 -10.702633,22.652509 -2.930257,0.165029 -7.606487,-1.11784 -8.647669,-2.372388 -0.422527,-0.509114 -0.86102,-0.204098 -2.174485,1.512571 -0.737439,0.963817 -2.057485,2.620029 -2.933435,3.680471 -0.875951,1.060443 -1.897142,2.299337 -2.269315,2.753087 -0.925054,1.12784 -1.294343,0.80766 -5.811791,-5.038945 -0.73259,-0.948136 -1.61615,-2.056094 -1.963469,-2.462128 l -0.631488,-0.738245 -1.240038,0.7722 c -12.758619,7.945078 -27.726787,-8.889628 -18.649517,-20.97513 0.25188,-0.335353 0.457963,-0.699068 0.457963,-0.808256 0,-0.157315 -2.6992,-1.55092 -3.003896,-1.55092 -0.181731,0 -1.251,2.666567 -1.593284,3.973369 -2.400917,9.166436 0.96478,18.196669 8.442368,22.651045 2.990303,1.781314 3.521186,2.556283 2.759788,4.02866 -1.173319,2.26895 -4.975761,0.82673 -9.519158,-3.610501 -1.684439,-1.645081 -1.893098,-1.791876 -2.202739,-1.549675 -8.485679,6.637516 -11.860502,14.576666 -10.579461,24.887816 0.418843,3.37128 2.625652,9.68179 3.188818,9.11862 0.291616,-0.29161 0.620103,-2.79386 0.631957,-4.81394 0.03523,-6.00328 0.708751,-10.27942 1.048381,-6.6561 0.928709,9.90788 3.318995,19.24874 5.881786,22.98511 0.607893,0.88626 0.654469,0.90668 1.411395,0.6189 l 0.513287,-0.19515 -1.039757,-1.00199 c -4.728585,-4.55683 -1.611148,-12.28939 4.826685,-11.97222 3.489717,0.17192 5.497923,2.03602 6.397246,5.93818 l 0.120461,0.52268 1.018656,-0.65163 c 5.934623,-3.79633 12.777636,2.34626 9.817313,8.81246 -0.878621,1.91916 -3.298739,3.72293 -4.995062,3.72293 -0.666495,0 -0.73021,0.25367 -0.297546,1.18464 0.488988,1.05217 4.220049,9.88512 4.220049,9.99059 0,0.0435 0.15084,0.41275 0.3352,0.82067 0.332491,0.73569 0.336025,0.70222 0.437422,-4.14266 0.0924,-4.41516 0.142786,-4.99348 0.524508,-6.02059 z m -4.748714,-5.999 c 1.465167,-0.73612 2.044185,-2.94709 1.154108,-4.40693 -1.649326,-2.70511 -5.927095,-1.26936 -5.704344,1.91455 0.155811,2.22711 2.51078,3.51704 4.550236,2.49238 z m 29.933686,-0.14885 c 2.189866,-1.48805 1.49226,-4.90406 -1.150509,-5.63377 -2.019403,-0.55758 -4.199483,1.57145 -3.798391,3.70945 0.391027,2.08436 3.140222,3.15335 4.9489,1.92432 z m -41.538132,-4.5468 c 1.792472,-1.02763 1.974034,-3.44923 0.37224,-4.96477 -2.582801,-2.44371 -6.394288,0.86027 -4.574539,3.96544 0.833347,1.422 2.693483,1.86435 4.202299,0.99933 z m 52.936003,-0.0777 c 3.250364,-2.42675 0.110226,-7.35012 -3.344021,-5.24304 -2.096509,1.27887 -1.854803,4.43637 0.420564,5.49399 0.76284,0.35457 2.28774,0.22368 2.923457,-0.25095 z M 70.220418,93.422405 c 0.647906,-0.869044 2.614718,-4.673991 2.859681,-5.532269 0.341912,-1.197957 -2.451575,-3.23287 -4.241026,-3.089371 -3.831069,0.30722 -4.074063,3.333238 -0.653879,8.142784 1.169104,1.644021 1.166929,1.643509 2.035224,0.478856 z M 55.614902,90.219952 c 7.392206,-1.566441 9.277835,-10.378165 3.11934,-14.576973 -1.208617,-0.824024 -1.264808,-0.73691 -0.470046,0.728723 2.761594,5.092696 -2.172571,10.948343 -7.166595,8.504995 -4.590644,-2.245993 -3.633247,-10.221474 1.338988,-11.154271 0.899362,-0.168721 0.794808,-0.37315 -0.424089,-0.829197 -5.141599,-1.923719 -9.900983,4.752287 -7.780243,10.913377 1.71237,4.974711 6.210816,7.509279 11.382645,6.413346 z m 31.574583,0.09012 c 2.304785,-0.427364 4.70774,-2.065054 6.088358,-4.149407 4.145801,-6.259016 -0.466094,-15.555603 -6.581771,-13.267434 -1.274432,0.476826 -1.311442,0.617045 -0.246613,0.934341 6.251433,1.862794 5.246107,11.598662 -1.195421,11.576802 -4.651219,-0.01578 -7.192648,-5.418133 -4.481172,-9.525686 0.632964,-0.958863 0.484618,-1.057056 -0.619455,-0.410026 -8.081346,4.735984 -2.456097,16.601496 7.036074,14.84141 z M 51.239833,79.665545 c 0.59004,-0.590039 0.243227,-1.422887 -0.592515,-1.422887 -1.058199,0 -0.908423,1.584277 0.161544,1.708761 0.07149,0.0083 0.265424,-0.120326 0.430971,-0.285874 z m 31.221436,0 c 0.543119,-0.543118 0.170884,-1.61443 -0.560946,-1.61443 -0.804667,0 -1.113034,1.143204 -0.436237,1.617251 0.530203,0.371368 0.623257,0.371105 0.997183,-0.0028 z M 56.152584,79.023562 c 1.496593,-1.496593 -0.323044,-4.03831 -2.18218,-3.048128 -0.542248,0.288803 -0.842469,0.705348 -0.971531,1.347963 -0.366778,1.826224 1.838687,3.015189 3.153711,1.700165 z m 31.727123,-0.102343 c 1.072566,-1.246932 -0.243828,-3.428082 -1.855338,-3.074135 -1.489716,0.327197 -1.948532,2.565685 -0.709507,3.461575 0.638051,0.46135 2.01346,0.253584 2.564845,-0.38744 z M 77.494844,72.389127 c 3.252531,-2.113806 5.359558,-2.91726 10.260797,-3.912659 9.862696,-2.003028 14.739349,-5.199493 18.077719,-11.849279 0.67909,-1.3527 0.62877,-1.357257 -1.25181,-0.113368 -2.80363,1.854432 -6.612718,3.59203 -11.475988,5.235027 -7.669157,2.590931 -8.75264,3.048845 -11.588324,4.897591 -3.090694,2.015002 -5.190194,4.120357 -7.561567,7.582654 -1.673546,2.443442 -1.621342,2.57955 0.295591,0.770674 0.941183,-0.888128 2.400795,-2.062917 3.243582,-2.61064 z m -12.184119,2.792138 c -3.134416,-5.576941 -8.546108,-9.472688 -17.313434,-12.463523 -7.082223,-2.41599 -9.940014,-3.655729 -13.718193,-5.951094 -2.248723,-1.366171 -2.210515,-1.363263 -1.581921,-0.120413 3.135683,6.199847 8.646518,9.934326 17.141273,11.615975 6.712259,1.32878 10.52114,3.052905 14.401229,6.518847 1.534624,1.370824 1.638346,1.409581 1.071046,0.400208 z m 4.793354,-2.842494 C 73.289173,66.037766 81.822408,60.00962 90.759166,57.747367 91.826354,57.477219 91.796462,57.346519 90.341128,55.919557 79.37968,45.171796 60.520945,44.96387 48.719937,55.460665 c -2.381915,2.118672 -2.400662,1.996356 0.437997,2.857752 8.786664,2.666329 15.903824,7.755793 19.255934,13.769872 0.959571,1.721582 0.94749,1.719792 1.690211,0.250482 z"
         id="path302" /><path
         style="fill:#03254b"
         d="m 28.938808,185.66935 c -4.673502,-0.35725 -7.76533,-3.09264 -8.003833,-7.08113 -0.117609,-1.96678 -0.440535,-1.12835 8.475167,-22.00466 4.415122,-10.3381 5.466485,-12.82436 5.466485,-12.92712 0,-0.0533 -1.068935,-1.17125 -2.37541,-2.48438 -14.607233,-14.68162 -13.980463,-36.00792 1.417697,-48.238152 1.720386,-1.366444 1.701614,-1.310368 0.986897,-2.947996 -2.889514,-6.620735 -2.800145,-14.624126 0.238667,-21.373729 0.686787,-1.525442 0.679284,-1.550311 -1.052984,-3.49019 -4.045886,-4.530783 -7.212196,-10.962206 -6.661373,-13.530607 0.556084,-2.592929 2.631035,-2.877389 5.415491,-0.742423 2.210842,1.695152 7.864899,4.791674 8.749298,4.791674 0.256762,0 0.891662,-0.521077 1.73435,-1.423418 13.496082,-14.451474 38.454999,-14.33127 52.119983,0.251014 0.604259,0.644822 1.23567,1.172404 1.403136,1.172404 1.06429,0 7.441911,-3.668739 9.694741,-5.576915 1.80197,-1.526295 4.28033,-0.366815 4.51871,2.114042 0.25147,2.617142 -3.18366,9.32812 -6.76626,13.218767 -1.64146,1.782598 -1.57124,1.553877 -0.92277,3.005737 3.0763,6.887495 3.24489,14.732783 0.45482,21.165593 -0.9439,2.176284 -0.9447,2.296594 -0.0192,2.909044 15.99385,10.584235 16.91504,34.814325 1.86756,49.122755 -1.74138,1.65586 -1.7351,1.62484 -0.45933,2.26786 18.1188,9.13244 15.32607,35.48732 -4.35759,41.12233 -1.68589,0.48263 -14.1244,0.73126 -15.993807,0.31969 -2.241564,-0.4935 -3.993579,-1.69528 -5.156964,-3.53737 -0.904009,-1.4314 -1.109008,-1.44067 -1.746776,-0.079 -2.0078,4.28674 -8.927025,5.43001 -12.963785,2.14202 -1.227047,-0.99944 -1.162414,-0.99876 -2.288346,-0.0243 -4.777275,4.1347 -13.461902,1.50764 -15.290574,-4.62533 -0.280025,-0.93914 -0.349101,-0.95788 -3.519229,-0.95478 -3.433096,0.003 -3.313271,-0.0372 -3.840851,1.30125 -1.932645,4.90316 -5.015798,6.6042 -11.1239,6.1373 z m 4.30123,-5.71349 c 1.124674,-0.54445 1.694655,-1.39 2.972474,-4.40959 1.26141,-2.9808 0.376367,-2.67573 7.762386,-2.67573 7.325551,0 6.596015,-0.2204 7.64476,2.30963 1.750961,4.22407 2.178476,4.76835 4.050653,5.15702 3.044605,0.63205 5.160331,-0.74322 5.160331,-3.35435 0,-1.28225 -0.09329,-1.55825 -2.136534,-6.3209 -1.175094,-2.73906 -3.393774,-7.93191 -4.930401,-11.53967 -5.206944,-12.22511 -5.089397,-12.06987 -9.290599,-12.26987 -4.935376,-0.23495 -4.861585,-0.32207 -10.045041,11.85972 -7.888256,18.53842 -7.649223,17.93911 -7.553277,18.93765 0.236326,2.45948 3.560537,3.66382 6.365248,2.30609 z m 7.382865,-15.11161 c 0,-0.20642 3.204011,-8.08078 3.345626,-8.2224 0.15824,-0.15824 0.147825,-0.18121 1.848639,4.07793 0.883023,2.21124 1.634227,4.08597 1.669343,4.16605 0.03512,0.0801 -1.49483,0.1456 -3.39988,0.1456 -1.90505,0 -3.463728,-0.0752 -3.463728,-0.16718 z m 31.961445,15.07171 c 1.026545,-0.49437 1.836258,-1.69464 2.14433,-3.17861 0.438714,-2.11328 0.155011,-26.19591 -0.320909,-27.24086 -1.616296,-3.54884 -6.875267,-3.28278 -7.931844,0.40129 -0.341489,1.1907 -0.242391,26.8674 0.10692,27.70342 1.077957,2.57991 3.506201,3.51648 6.001503,2.31476 z m 26.763593,0.0377 c 14.127789,-3.55447 17.310089,-22.29894 5.153429,-30.3549 -3.39967,-2.25288 -4.99821,-2.59232 -12.208373,-2.59232 -7.143481,0 -7.752894,0.1661 -8.784509,2.39429 -0.433373,0.93604 -0.567163,26.81982 -0.145143,28.08028 0.44491,1.32884 1.413392,2.23926 2.845445,2.67487 1.173621,0.357 11.551273,0.19728 13.139151,-0.20222 z M 91.86076,172.0723 c -0.05509,-0.14361 -0.07767,-4.05365 -0.05019,-8.68898 l 0.04997,-8.42787 1.723883,-0.0576 c 10.347777,-0.34576 14.340227,12.00822 5.324483,16.4757 l -1.643035,0.81416 -2.652475,0.0728 c -2.113347,0.058 -2.672832,0.0198 -2.752632,-0.18825 z M 60.548687,154.65248 c 0.115274,-5.98628 0.19091,-6.35338 1.811145,-8.79056 3.556719,-5.35007 10.63418,-5.80118 15.317542,-0.97632 0.877673,0.90419 1.178033,0.96488 1.481297,0.29928 0.185772,-0.40772 0.157733,-0.54601 -0.184581,-0.91039 -5.044297,-5.3694 2.266712,-13.76981 8.701895,-9.99854 1.107046,0.64877 1.127879,0.63785 1.57183,-0.82376 2.391613,-7.87386 13.409015,-5.79521 12.817015,2.41819 -0.11599,1.60932 -0.80757,3.01825 -2.080656,4.23888 -1.132137,1.08548 -0.92311,1.91707 0.481876,1.91707 1.84976,0 5.78948,-13.1399 6.5364,-21.80045 0.2276,-2.63905 0.42786,-1.52342 0.52657,2.93351 0.15901,7.17935 0.67473,8.22881 2.39041,4.86436 5.69383,-11.16563 1.60391,-26.83747 -8.5573,-32.790029 l -0.58643,-0.343539 -1.87176,1.765419 c -4.092421,3.859929 -7.338977,5.359539 -8.68625,4.012269 -1.088864,-1.088864 -0.62799,-2.190631 1.41582,-3.384662 9.15611,-5.349169 12.79308,-16.123185 8.71607,-25.820213 -0.846409,-2.01317 -0.945169,-2.060215 -2.67789,-1.275631 -1.979555,0.896351 -1.986786,0.907119 -1.29531,1.928845 8.74515,12.921852 -5.50318,28.764951 -18.419448,20.481075 -1.176008,-0.754234 -1.109004,-0.781619 -2.487549,1.016664 -0.992238,1.294354 -3.4453,4.331883 -5.661925,7.010942 l -0.408769,0.49404 -0.644715,-0.66943 c -0.648026,-0.672876 -2.023473,-2.350643 -5.05424,-6.165154 -1.794811,-2.258942 -1.847078,-2.285852 -3.01172,-1.550646 -12.625955,7.97042 -27.13687,-7.74844 -18.655712,-20.208681 0.946216,-1.39015 0.927937,-1.434597 -0.952379,-2.315743 -1.929063,-0.903989 -1.857039,-0.926376 -2.668234,0.829351 -4.294957,9.29587 -0.763919,20.723029 8.022283,25.961743 2.659389,1.585643 3.106854,2.441518 1.922675,3.67753 -1.376826,1.4371 -4.762791,-0.16026 -8.924043,-4.210008 -1.68424,-1.63911 -1.893135,-1.785466 -2.202739,-1.543293 -10.180321,7.963071 -13.76616,19.416231 -9.608988,30.691091 2.132671,5.78411 3.179566,5.1026 3.217214,-2.09437 0.02142,-4.09448 0.515804,-7.00915 0.577307,-3.40354 0.09399,5.51037 3.818669,18.71269 5.983246,21.20794 l 0.638435,0.73597 0.814056,-0.32579 c 1.018877,-0.40777 1.05393,-0.27449 -0.503367,-1.91392 -5.350529,-5.63271 0.883336,-14.16758 7.666688,-10.49656 1.700257,0.92015 3.227862,3.35036 3.227862,5.13509 0,0.75335 0.331691,0.7363 1.553923,-0.0799 5.520367,-3.68636 11.891395,1.79693 9.513352,8.18777 -0.739278,1.98676 -2.549529,3.35208 -4.985799,3.76038 -1.051805,0.17627 -0.953834,0.52596 2.148574,7.66895 0.870044,2.00319 1.747918,4.12361 2.32598,5.61819 0.496354,1.28331 0.649565,0.26983 0.750339,-4.96345 z m -4.453758,-11.99367 c 1.620734,-0.76909 2.206531,-3.20326 1.153737,-4.79414 -1.263159,-1.90876 -3.882598,-2.03661 -5.375524,-0.26237 -2.398278,2.85019 0.799658,6.68042 4.221787,5.05651 z m 29.905305,-0.14222 c 2.305027,-1.60154 1.665664,-5.23407 -1.064639,-6.04872 -2.529889,-0.75486 -5.027975,2.02784 -4.075997,4.54039 0.740925,1.95551 3.381797,2.73038 5.140636,1.50833 z m -41.776396,-4.39978 c 2.141349,-1.1187 2.472292,-3.81157 0.67737,-5.51177 -2.78741,-2.6403 -7.135592,1.08381 -4.987368,4.27156 0.941862,1.39763 2.919426,1.96667 4.309998,1.24021 z m 52.65222,0.0659 c 2.473091,-0.93703 2.753186,-4.50144 0.467628,-5.9509 -3.250436,-2.06136 -6.767844,2.07843 -4.279045,5.0362 0.862093,1.02454 2.490245,1.41528 3.811417,0.9147 z M 70.716645,93.055253 c 0.987928,-1.464045 2.326172,-4.109742 2.565535,-5.072039 0.548377,-2.204607 -3.833786,-4.220418 -6.186443,-2.845787 -2.410381,1.40836 -2.24229,3.257969 0.692009,7.614579 1.497927,2.224001 1.623981,2.237052 2.928899,0.303247 z M 56.005054,90.407206 c 6.36513,-1.657906 8.858943,-8.911328 4.632268,-13.473259 -1.79196,-1.934096 -4.611613,-3.232892 -3.311555,-1.525377 3.86278,5.073431 -0.855414,11.965965 -6.2911,9.190298 -4.204364,-2.146907 -3.279386,-9.39752 1.349738,-10.580169 1.401941,-0.358169 1.407034,-0.362473 0.909253,-0.768531 -3.940332,-3.214275 -9.797616,1.258996 -9.797616,7.482543 0,6.615919 6.109827,11.341271 12.509012,9.674495 z m 31.94198,-0.02296 c 2.9976,-0.889386 5.4179,-3.119772 6.513059,-6.001994 2.740981,-7.213677 -3.544442,-15.032649 -8.996004,-11.190893 -0.523264,0.368748 -0.167917,0.835481 0.638894,0.839158 3.88136,0.01769 5.710054,6.721215 2.647198,9.70395 -5.127167,4.993047 -12.002697,-3.160064 -7.126234,-8.450401 1.330735,-1.443677 0.420305,-1.395452 -1.809363,0.09584 -8.24609,5.515321 -1.546482,17.876072 8.13245,15.004338 z M 51.38209,79.841083 c 1.015494,-0.91901 -0.190892,-2.41919 -1.265606,-1.57382 -0.589572,0.463757 -0.627163,0.988568 -0.107996,1.507735 0.46609,0.46609 0.908103,0.487355 1.373602,0.06609 z m 31.221435,0 c 0.686085,-0.620898 0.226081,-1.98151 -0.669921,-1.98151 -1.003944,0 -1.476299,1.42932 -0.661061,2.000335 0.54503,0.381754 0.893799,0.376821 1.330982,-0.01883 z M 56.115464,79.462651 c 1.668219,-1.168466 0.726565,-3.901589 -1.344231,-3.901589 -1.125005,0 -2.081149,0.968007 -2.081149,2.106968 0,1.648869 2.078646,2.737911 3.42538,1.794621 z m 31.833183,-0.247546 c 0.984958,-0.984958 0.633723,-2.669874 -0.70708,-3.391944 -1.754326,-0.944767 -3.613948,1.148711 -2.659653,2.994116 0.59613,1.152787 2.398767,1.365794 3.366733,0.397828 z M 72.934391,76.844087 c 3.354881,-4.186536 7.830593,-6.610416 14.927422,-8.084138 10.082323,-2.093687 14.613287,-5.053398 18.086047,-11.814132 1.14254,-2.224303 1.06787,-2.576016 -0.32476,-1.529615 -3.20843,2.41077 -6.544074,3.972567 -13.595894,6.365801 -11.063774,3.754802 -14.734989,6.384464 -19.370354,13.87483 -1.636412,2.644307 -1.467861,3.36533 0.277539,1.187254 z m -6.070158,0.485704 c 0,-0.702218 -2.9642,-4.934224 -4.776381,-6.819269 -3.660137,-3.807304 -7.16903,-5.805876 -14.560368,-8.2932 -6.523745,-2.195362 -9.929558,-3.702996 -13.530375,-5.989423 -2.522082,-1.601458 -2.730612,-1.440889 -1.312417,1.01056 3.558051,6.150341 8.713227,9.684355 16.255669,11.143705 7.66696,1.483442 12.336892,3.716041 16.385998,7.833811 1.168482,1.188298 1.537874,1.455832 1.537874,1.113816 z m 3.236106,-4.402439 C 73.505041,66.231525 81.61224,60.419984 90.83835,58.061577 c 1.767835,-0.4519 1.132648,-1.496078 -2.647558,-4.3523 -12.511023,-9.452995 -30.402123,-8.208672 -41.129006,2.860514 -0.992316,1.023982 -0.867431,1.193387 1.344306,1.823541 9.277041,2.643157 17.492918,8.654509 20.259,14.823006 0.485118,1.081836 0.767078,1.025064 1.435247,-0.288986 z"
         id="path301" /></g></g></svg>
