<svg width="14" height="13" viewBox="0 0 14 13" fill="none" xmlns="http://www.w3.org/2000/svg">
<g id="XMLID_51_">
<path id="XMLID_53_" d="M4.65845 12.2791C4.65845 12.361 4.70503 12.4362 4.7791 12.4744C4.85312 12.5127 4.94311 12.5078 5.01229 12.4615L6.57039 11.4223L4.65848 10.5322V12.2791H4.65845Z" fill="white"/>
<path id="XMLID_52_" d="M13.9273 0.558706C13.8845 0.520167 13.8292 0.5 13.7734 0.5C13.7397 0.5 13.7062 0.507293 13.6744 0.522543L0.223554 6.96745C0.0860717 7.03345 -0.000925893 7.17059 7.43561e-06 7.3206C0.000940765 7.47041 0.089409 7.60661 0.227881 7.67115L3.77289 9.32111L10.8611 3.63035L4.65121 9.72987L9.06741 11.7853C9.12166 11.8107 9.18088 11.8233 9.23948 11.8233C9.28949 11.8233 9.33901 11.8144 9.38616 11.7963C9.48902 11.7566 9.57076 11.677 9.61157 11.5765L13.984 0.802205C14.0186 0.71742 13.996 0.620479 13.9273 0.558706Z" fill="white"/>
</g>
</svg>
